<?xml version="1.0" encoding="UTF-8"?>
<svg version="1.1" xmlns="http://www.w3.org/2000/svg" width="436" height="192">
<path d="M0 0 C3.49020399 0.00915168 6.98033182 -0.00496868 10.47052002 -0.01591969 C17.28638806 -0.03360295 24.10207882 -0.02991081 30.91795349 -0.01826912 C36.46283408 -0.00919459 42.00766537 -0.00802806 47.55255127 -0.01236439 C48.3450679 -0.01297732 49.13758453 -0.01359025 49.95411682 -0.01422176 C51.56465659 -0.0155008 53.17519634 -0.01679766 54.78573608 -0.01811212 C69.84851816 -0.02948806 84.91120247 -0.0164513 99.97396851 0.00508934 C112.86739916 0.02295761 125.76068571 0.01985266 138.65411377 0.0014143 C153.6670773 -0.02004541 168.6799554 -0.0283897 183.69293213 -0.01613665 C185.29718016 -0.0148626 186.90142821 -0.01360511 188.50567627 -0.01236439 C189.29476883 -0.01174729 190.08386139 -0.01113018 190.89686584 -0.01049438 C196.42794871 -0.00705674 201.95897688 -0.01283539 207.49005127 -0.0222826 C214.24083735 -0.03356089 220.99143766 -0.03034119 227.74220276 -0.00915962 C231.17925219 0.00127317 234.61599317 0.0056077 238.05303955 -0.00775623 C268.07332654 -0.09627723 291.21318304 6.02041522 313.02911377 27.52289867 C313.69942627 28.18032055 314.36973877 28.83774242 315.06036377 29.51508617 C331.46995459 46.89433463 336.59996639 70.94862304 336.42022705 94.06586742 C336.40412714 96.52085932 336.42018255 98.97420582 336.43927002 101.42914867 C336.47301611 126.4632553 328.89249039 149.54410736 311.08770752 167.55414867 C294.22497304 184.07360794 274.1494097 192.67406479 250.48165894 192.67006969 C249.31175836 192.67374638 248.14185778 192.67742307 246.93650568 192.68121117 C243.69729196 192.69030925 240.45810803 192.69494139 237.21888375 192.69760048 C233.72171006 192.70151576 230.22455087 192.71109332 226.72738647 192.71981335 C218.28480065 192.73954496 209.84221369 192.74964051 201.39961058 192.75854114 C197.41788917 192.76293011 193.43616907 192.7682954 189.4544487 192.77353001 C176.20753824 192.79054022 162.96062858 192.80503205 149.71370888 192.81227875 C146.27864201 192.81418846 142.84357514 192.81610882 139.4085083 192.81806469 C138.55480122 192.81854843 137.70109414 192.81903217 136.82151715 192.81953057 C123.00723252 192.82782215 109.19303471 192.85314524 95.37878795 192.88564537 C81.17652316 192.91878423 66.9743024 192.93673373 52.77199876 192.93992299 C44.80588734 192.94208195 36.83990248 192.95074007 28.87382889 192.97638416 C22.08622942 192.99818481 15.29878727 193.00609595 8.51115675 192.99641738 C5.05390493 192.99189935 1.59697704 192.99361101 -1.86022949 193.01317883 C-31.22441247 193.15219078 -54.3292426 187.760369 -75.97088623 166.52289867 C-76.65795654 165.86032055 -77.34502686 165.19774242 -78.05291748 164.51508617 C-95.06588739 146.86454935 -100.34913573 123.0048191 -100.28656006 99.28168774 C-100.28340955 96.79132902 -100.30689933 94.30217314 -100.33221436 91.81196117 C-100.42682741 68.09307161 -93.85878425 46.58802716 -77.97088623 28.52289867 C-77.31604248 27.7726643 -76.66119873 27.02242992 -75.98651123 26.24946117 C-66.69661573 16.29600171 -54.81454855 8.90400807 -41.97088623 4.52289867 C-40.43259155 3.99605858 -40.43259155 3.99605858 -38.86322021 3.45857525 C-26.03822708 -0.31523545 -13.27867222 -0.05163017 0 0 Z M-38.15838623 63.77289867 C-47.40488254 75.23653851 -48.93987847 88.19672105 -47.97088623 102.52289867 C-46.10510835 114.19422457 -41.79857527 123.52326757 -32.97088623 131.52289867 C-23.03061642 138.49148842 -12.00096746 140.96335399 -0.05682373 139.05805492 C10.70793717 136.75521367 18.6878678 131.57478087 25.02911377 122.52289867 C27.51724253 118.05457277 29.02911377 114.68423155 29.02911377 109.52289867 C23.41911377 109.52289867 17.80911377 109.52289867 12.02911377 109.52289867 C7.86373412 115.46860343 7.86373412 115.46860343 8.02911377 118.52289867 C0.07230499 122.64865137 -7.50997935 124.15100599 -16.42010498 121.90571117 C-21.77011916 119.60265745 -24.6599341 115.78076264 -26.97088623 110.52289867 C-28.74570874 105.32966803 -29.35823004 100.7017064 -29.34588623 95.27289867 C-29.3442749 94.53072094 -29.34266357 93.78854321 -29.34100342 93.02387524 C-29.17024168 85.30611425 -27.18997335 79.07343806 -23.09588623 72.52289867 C-17.87259298 67.60685797 -11.97600642 66.3541006 -4.97088623 66.52289867 C1.00895118 67.5826167 5.24942608 69.63153814 9.02911377 74.52289867 C10.01911377 76.83289867 11.00911377 79.14289867 12.02911377 81.52289867 C17.63911377 81.52289867 23.24911377 81.52289867 29.02911377 81.52289867 C28.75615394 73.06114384 26.11281942 66.97871769 20.35723877 60.69867992 C11.56918509 52.69671362 1.15893709 49.9935168 -10.52557373 50.21039867 C-21.87197927 51.2395511 -30.48021932 55.53244176 -38.15838623 63.77289867 Z M105.02911377 51.52289867 C105.02911377 80.23289867 105.02911377 108.94289867 105.02911377 138.52289867 C110.63911377 138.52289867 116.24911377 138.52289867 122.02911377 138.52289867 C122.02911377 109.81289867 122.02911377 81.10289867 122.02911377 51.52289867 C116.41911377 51.52289867 110.80911377 51.52289867 105.02911377 51.52289867 Z M132.02911377 51.52289867 C132.02911377 80.23289867 132.02911377 108.94289867 132.02911377 138.52289867 C137.63911377 138.52289867 143.24911377 138.52289867 149.02911377 138.52289867 C149.02911377 109.81289867 149.02911377 81.10289867 149.02911377 51.52289867 C143.41911377 51.52289867 137.80911377 51.52289867 132.02911377 51.52289867 Z M222.02911377 51.52289867 C222.02911377 80.23289867 222.02911377 108.94289867 222.02911377 138.52289867 C227.63911377 138.52289867 233.24911377 138.52289867 239.02911377 138.52289867 C239.02911377 134.89289867 239.02911377 131.26289867 239.02911377 127.52289867 C239.73036377 128.24477367 240.43161377 128.96664867 241.15411377 129.71039867 C242.11137435 130.64899401 243.06975784 131.58644514 244.02911377 132.52289867 C245.35942627 133.85321117 245.35942627 133.85321117 246.71661377 135.21039867 C251.22095453 138.86006965 256.77623662 139.77874294 262.46270752 139.33149242 C270.69523078 137.79049734 276.26404359 133.24756871 281.02911377 126.52289867 C286.46504255 116.64130721 286.80288574 102.61580309 283.77911377 91.83539867 C281.0045467 84.24387489 276.2431558 78.31277687 269.07989502 74.47992992 C262.97135904 71.92370563 257.72221663 71.65562826 251.34161377 73.71039867 C246.73834558 76.22916806 243.92085641 79.18528471 241.02911377 83.52289867 C240.69911377 72.96289867 240.36911377 62.40289867 240.02911377 51.52289867 C234.08911377 51.52289867 228.14911377 51.52289867 222.02911377 51.52289867 Z M43.02911377 81.52289867 C35.63960856 91.47409903 34.01001083 101.29366345 35.02911377 113.52289867 C37.05278702 122.40518341 41.21978903 130.37246397 48.95489502 135.45649242 C57.77502578 139.99113592 67.54694561 140.83183629 77.09161377 138.46039867 C85.40552017 135.64988 91.08200556 130.59520683 95.05645752 122.83149242 C99.02441453 113.41357037 100.05162323 101.73268443 96.40411377 91.96039867 C92.25912781 83.43853943 87.08212665 77.28907005 78.12677002 73.77680492 C65.98921719 70.17773507 52.04069755 72.27925694 43.02911377 81.52289867 Z M162.02911377 81.52289867 C159.99201264 84.61307751 158.02911377 87.75023885 158.02911377 91.52289867 C160.61232643 91.82627597 163.19020491 92.09128876 165.77911377 92.33539867 C166.50872314 92.42498852 167.23833252 92.51457836 167.99005127 92.60688305 C170.42752342 92.87319644 170.42752342 92.87319644 174.02911377 92.52289867 C176.36020068 90.20694993 176.36020068 90.20694993 178.02911377 87.52289867 C181.98802672 85.44140836 185.54732125 85.4451902 189.90411377 86.14789867 C193.02911377 87.52289867 193.02911377 87.52289867 194.46661377 89.33539867 C195.10353863 91.81232868 195.17063934 93.9754384 195.02911377 96.52289867 C192.17536329 98.10656228 189.81406838 98.85173106 186.57989502 99.23383617 C185.73104736 99.34469555 184.88219971 99.45555492 184.00762939 99.56977367 C182.25046456 99.78604011 180.49265038 99.99710338 178.73419189 100.20258617 C171.57535852 101.15206219 164.13929325 102.79760875 159.09161377 108.33539867 C155.45430594 113.95669259 154.51429816 118.85111333 155.50177002 125.38617992 C156.78241898 130.57517981 159.64897926 133.47598412 163.96661377 136.33539867 C166.99511894 138.07874482 169.49972247 139.25140704 173.02911377 139.52289867 C174.10161377 139.60539867 175.17411377 139.68789867 176.27911377 139.77289867 C182.3988445 139.36491663 187.27775979 138.08388809 191.90411377 133.96039867 C192.95598877 132.75383617 192.95598877 132.75383617 194.02911377 131.52289867 C195.01911377 130.86289867 196.00911377 130.20289867 197.02911377 129.52289867 C197.02911377 132.49289867 197.02911377 135.46289867 197.02911377 138.52289867 C202.30911377 138.52289867 207.58911377 138.52289867 213.02911377 138.52289867 C213.12832482 131.6910728 213.20074532 124.85967051 213.24884033 118.02729321 C213.26889953 115.70527874 213.29615368 113.38331445 213.33087158 111.06147289 C213.37963918 107.71515522 213.4021402 104.36950809 213.41973877 101.02289867 C213.44038391 99.99237377 213.46102905 98.96184887 213.4822998 97.90009594 C213.48424694 91.58151593 212.70773999 86.77034207 209.02911377 81.52289867 C202.51862274 75.01240764 194.8932854 72.43334189 185.84161377 72.27289867 C176.69653194 72.39581644 168.51435814 74.81350991 162.02911377 81.52289867 Z " fill="#000000" transform="translate(99.97088623046875,-0.5228986740112305)"/>
<path d="M0 0 C5.20960093 4.08320073 7.36085547 8.30372139 8.3125 14.8125 C9.03563052 21.84082121 8.35860104 29.66562724 4.05859375 35.51953125 C0.12509455 39.23867082 -3.50060189 39.8125 -8.6875 39.8125 C-13.90483493 38.10683281 -16.14852119 35.61842418 -18.6875 30.8125 C-21.44016475 23.34098138 -21.69015518 14.77661051 -18.67578125 7.3046875 C-14.42894864 0.04354152 -8.36247664 -3.69504782 0 0 Z " fill="#000000" transform="translate(172.6875,86.1875)"/>
<path d="M0 0 C4.02401673 1.82909851 5.568307 3.27058769 7.8125 7.0625 C11.02862679 16.00256673 10.60507966 25.29363503 6.6875 33.875 C4.15781129 37.06053393 1.98123839 38.69970139 -2.11328125 39.3203125 C-6.19149985 39.52593697 -8.6443121 39.17125714 -12.375 37.375 C-17.19601458 33.01312967 -18.7042048 28.09784573 -19.16015625 21.78125 C-19.43216935 14.11757651 -18.44258807 7.91919062 -13.4375 1.9375 C-8.81413229 -0.66839816 -5.19132285 -0.89476459 0 0 Z " fill="#000000" transform="translate(358,86)"/>
<path d="M0 0 C0.57083403 12.07208257 0.57083403 12.07208257 -3 16 C-7.36215339 19.93657745 -10.96269627 20.64493803 -16.65234375 20.37890625 C-20.17567777 19.81024835 -21.825981 18.82622471 -24 16 C-24.625 12.5625 -24.625 12.5625 -24 9 C-20.00225461 3.74400008 -15.92375375 2.81935485 -9.75 1.6875 C-8.92242187 1.51927734 -8.09484375 1.35105469 -7.2421875 1.17773438 C-1.37755102 0 -1.37755102 0 0 0 Z " fill="#010101" transform="translate(296,107)"/>
</svg>
