<?xml version="1.0" encoding="UTF-8"?>
<svg version="1.1" xmlns="http://www.w3.org/2000/svg" width="500" height="500">
<path d="M0 0 C165 0 330 0 500 0 C500 165 500 330 500 500 C335 500 170 500 0 500 C0 335 0 170 0 0 Z " fill="#FEFEFE" transform="translate(0,0)"/>
<path d="M0 0 C1.37586525 -0.0098568 1.37586525 -0.0098568 2.77952576 -0.01991272 C5.82404659 -0.03967109 8.86851803 -0.05131441 11.91308594 -0.0612793 C12.95185631 -0.06535482 13.99062668 -0.06943035 15.06087494 -0.07362938 C20.55962425 -0.09450166 26.05834853 -0.10879797 31.55712891 -0.11816406 C37.23789984 -0.12922661 42.91827887 -0.16362164 48.59891129 -0.20333576 C52.9655429 -0.22947939 57.33208087 -0.23785395 61.69878387 -0.24144554 C63.79274897 -0.24631787 65.88670971 -0.25795019 67.98059845 -0.27648354 C70.91316265 -0.30082505 73.8447095 -0.29991884 76.77734375 -0.29296875 C77.64095016 -0.30577881 78.50455658 -0.31858887 79.39433289 -0.33178711 C86.86346793 -0.26733556 90.96653157 2.75032048 96.19335938 7.96411133 C97.29414825 9.05544373 97.29414825 9.05544373 98.41717529 10.16882324 C99.18926331 10.94495972 99.96135132 11.72109619 100.75683594 12.52075195 C101.56485657 13.32685913 102.3728772 14.13296631 103.2053833 14.96350098 C104.90549479 16.66225583 106.60310066 18.36352157 108.29833984 20.06713867 C110.89557062 22.67510382 113.50332824 25.27219919 116.11230469 27.8684082 C117.76529033 29.52271499 119.41765572 31.17764182 121.06933594 32.83325195 C121.84952087 33.60938843 122.62970581 34.3855249 123.43353271 35.18518066 C124.15478333 35.9127356 124.87603394 36.64029053 125.61914062 37.38989258 C126.2539032 38.02624634 126.88866577 38.6626001 127.54266357 39.3182373 C130.73212492 43.01244701 131.39809077 45.91836981 131.40815735 50.76727295 C131.41524216 51.90553528 131.42232697 53.04379761 131.42962646 54.21655273 C131.42714905 55.46130371 131.42467163 56.70605469 131.42211914 57.98852539 C131.42723007 59.30274475 131.432341 60.61696411 131.43760681 61.9710083 C131.45099702 65.57452774 131.45157519 69.17794228 131.44904351 72.78148174 C131.44797325 75.79315478 131.45285887 78.80480665 131.45764893 81.81647515 C131.4687454 88.92592468 131.46918154 96.03532139 131.46313477 103.14477539 C131.45710168 110.46791076 131.46938863 117.79085368 131.49070483 125.11395621 C131.50835124 131.40881437 131.51431719 137.70361146 131.51106709 143.99849343 C131.50925803 147.75464117 131.51185201 151.51065179 131.52578163 155.26677704 C131.53840402 158.80285815 131.53637459 162.33864091 131.52337074 165.87471771 C131.5198962 167.78159877 131.53115204 169.68848912 131.54293823 171.59533691 C131.50291982 178.15375982 131.1081504 183.27196469 128.14746094 189.17700195 C123.54809671 192.91398538 119.89890864 194.2984781 114.050354 194.31744385 C112.99616272 194.32315399 111.94197144 194.32886414 110.85583496 194.33474731 C109.69942505 194.33586517 108.54301514 194.33698303 107.3515625 194.33813477 C106.13341858 194.34309967 104.91527466 194.34806458 103.66021729 194.35317993 C100.31704031 194.36529023 96.97392591 194.37274739 93.63073444 194.37719059 C91.54064223 194.38012337 89.45055547 194.38422861 87.360466 194.38869476 C80.81707671 194.40236872 74.27369992 194.41203529 67.73029733 194.41589665 C60.18459087 194.42037424 52.63906585 194.43790851 45.09341455 194.46689725 C39.25634653 194.48854099 33.41932945 194.4986024 27.58222175 194.49993777 C24.09826413 194.50098408 20.61447709 194.50685429 17.13056183 194.52475739 C13.24062805 194.54435779 9.35091941 194.53993835 5.4609375 194.53344727 C4.31262451 194.54266205 3.16431152 194.55187683 1.98120117 194.56137085 C-4.06108487 194.52978817 -8.57067345 194.22504614 -13.85253906 191.17700195 C-18.39197224 185.56243987 -18.9758426 181.42857331 -18.99298096 174.37188721 C-18.99595208 173.68807724 -18.9989232 173.00426727 -19.00198436 172.29973578 C-19.01065363 170.0091376 -19.01217811 167.7185918 -19.01367188 165.42797852 C-19.01830133 163.78521615 -19.02332616 162.14245486 -19.02871704 160.49969482 C-19.04183134 156.03672736 -19.04828418 151.57377493 -19.0527277 147.11079121 C-19.05566017 144.32133342 -19.05976532 141.53187973 -19.06423187 138.74242401 C-19.07790464 130.01150032 -19.08757221 121.280586 -19.09143376 112.54965234 C-19.09591323 102.47742305 -19.11345691 92.40532956 -19.14243436 82.33314157 C-19.16406525 74.54361324 -19.17413881 66.75412308 -19.17547488 58.96456504 C-19.17652196 54.31415571 -19.18240898 49.66387406 -19.20029449 45.0134964 C-19.21679937 40.63697397 -19.21891898 36.26067489 -19.21015549 31.88413239 C-19.20938639 30.28137615 -19.21371103 28.67860779 -19.22361374 27.07588196 C-19.31242781 11.80088064 -19.31242781 11.80088064 -15.85253906 5.17700195 C-10.66495813 0.24247374 -6.9248225 0.02136069 0 0 Z M-11.85253906 11.17700195 C-13.29052535 14.05297453 -12.99517616 16.53291075 -13.01316833 19.74833679 C-13.01825615 20.43114348 -13.02334397 21.11395016 -13.02858597 21.81744796 C-13.0443429 24.11657782 -13.05284406 26.41567618 -13.0612793 28.71484375 C-13.07081523 30.35893454 -13.08070628 32.00302331 -13.09092712 33.64710999 C-13.12234521 39.05678924 -13.142584 44.46648402 -13.16113281 49.8762207 C-13.16443013 50.79627655 -13.16772746 51.7163324 -13.1711247 52.66426873 C-13.20190921 61.34017155 -13.22861962 70.01607779 -13.24554348 78.69201946 C-13.26744981 89.79257671 -13.30941459 100.89265021 -13.37898105 111.99301404 C-13.4262234 119.79606891 -13.45047744 127.59899329 -13.45774037 135.40218669 C-13.46269675 140.06339363 -13.47777562 144.72405569 -13.51748466 149.38510704 C-13.55436826 153.77244537 -13.56275534 158.15892805 -13.54947853 162.54639244 C-13.54953245 164.15443343 -13.55981858 165.76251249 -13.58123016 167.37041092 C-13.9539668 176.94567926 -13.9539668 176.94567926 -10.56948853 185.63392639 C-6.07820303 189.68175357 -0.40635211 189.13725533 5.31567383 189.05102539 C7.14836571 189.06460587 7.14836571 189.06460587 9.01808167 189.07846069 C12.35790882 189.09551078 15.6946877 189.08129024 19.03423238 189.05141735 C22.53393205 189.02618256 26.03354886 189.03682637 29.53330994 189.04229736 C35.40861736 189.0458782 41.28329678 189.0213763 47.15844727 188.97973633 C53.94567178 188.93193879 60.73190432 188.926709 67.51925093 188.94468665 C74.05688886 188.96117374 80.59417269 188.94931279 87.13177299 188.92395782 C89.9104315 188.91356998 92.68884812 188.91274927 95.46751595 188.91960907 C99.3482695 188.92751543 103.228055 188.89379916 107.10864258 188.85571289 C108.25943298 188.86269196 109.41022339 188.86967102 110.59588623 188.87686157 C117.03611072 188.93897854 117.03611072 188.93897854 122.33738708 185.75958252 C124.92781645 182.06360485 125.27186798 180.28779573 125.26771545 175.81137085 C125.26909012 174.67271072 125.27046478 173.5340506 125.2718811 172.36088562 C125.26828583 171.10572647 125.26469055 169.85056732 125.26098633 168.55737305 C125.26120537 166.58183693 125.26120537 166.58183693 125.26142883 164.56639099 C125.26171645 160.94884264 125.25582552 157.33132727 125.24885488 153.7137866 C125.24261536 149.93546432 125.24201706 146.15714134 125.24082947 142.3788147 C125.23771792 135.221307 125.2295069 128.06381452 125.21947998 120.90631354 C125.20831337 112.75890311 125.20280701 104.61149197 125.19778454 96.4640758 C125.18732415 79.70170893 125.16972811 62.93935738 125.14746094 46.17700195 C124.04233154 46.16765625 122.93720215 46.15831055 121.79858398 46.14868164 C117.70002873 46.10882215 113.60222736 46.04307558 109.50415039 45.96948242 C107.73016033 45.94124916 105.95604392 45.92004632 104.18188477 45.90600586 C101.63199062 45.88460815 99.08361928 45.8379776 96.53417969 45.78637695 C95.74033371 45.78514832 94.94648773 45.78391968 94.12858582 45.78265381 C90.94597546 45.69790943 88.7241174 45.62136664 86.15527344 43.6418457 C84.73331925 40.16412054 84.66749253 36.83158195 84.63574219 33.13012695 C84.61779099 32.35892517 84.59983978 31.58772339 84.5813446 30.79315186 C84.52730325 28.33782363 84.49336674 25.88268909 84.45996094 23.42700195 C84.42678229 21.75900629 84.39229212 20.09103616 84.35644531 18.4230957 C84.27158071 14.34120435 84.20474067 10.25936981 84.14746094 6.17700195 C72.36899394 6.06116265 60.5906624 5.97231399 48.81174183 5.91794109 C43.34230749 5.89184498 37.87326281 5.85644607 32.40405273 5.79980469 C27.12613278 5.74548632 21.84858767 5.71558153 16.57040977 5.70261574 C14.55652655 5.69337561 12.54266389 5.67533165 10.5289402 5.64835167 C7.7083767 5.61206382 4.88936281 5.60705651 2.06860352 5.609375 C1.23566269 5.59139862 0.40272186 5.57342224 -0.45545959 5.55490112 C-5.95783354 5.60385463 -8.32967765 6.62694874 -11.85253906 11.17700195 Z " fill="#090909" transform="translate(53.8525390625,152.822998046875)"/>
<path d="M0 0 C36.73214286 0 36.73214286 0 45.58984375 8.53125 C51.88860384 15.30742223 53.55240105 22.4146014 53.4375 31.4375 C53.42920166 32.27643799 53.42090332 33.11537598 53.41235352 33.97973633 C53.24563204 40.06655333 52.59052758 44.93038942 49 50 C48.53722656 50.70253906 48.07445312 51.40507812 47.59765625 52.12890625 C42.47339318 58.93202324 38.72288935 59.36546277 30 63 C20.1 63 10.2 63 0 63 C0 42.21 0 21.42 0 0 Z " fill="#070707" transform="translate(202,218)"/>
<path d="M0 0 C5.82487858 3.26418317 8.71069283 8.23388566 11.625 14.0625 C12.39407817 23.46722729 12.7335844 32.26984471 6.625 40.0625 C0.49745418 45.93880248 -6.03082098 47.5325248 -14.3671875 47.37890625 C-21.14909188 46.66548514 -26.0906729 43.29889979 -30.375 38.0625 C-35.55690505 31.23257925 -35.267464 23.30201615 -34.375 15.0625 C-32.43138874 8.22348284 -27.87352207 3.35147688 -21.8125 -0.25 C-14.75431711 -3.49330815 -7.04166538 -3.05421631 0 0 Z " fill="#050505" transform="translate(295.375,234.9375)"/>
<path d="M0 0 C4.62 0 9.24 0 14 0 C16.23152954 6.56056282 18.27324746 13.15279178 20.1875 19.8125 C20.46013672 20.73998047 20.73277344 21.66746094 21.01367188 22.62304688 C21.27083984 23.51701172 21.52800781 24.41097656 21.79296875 25.33203125 C22.0252417 26.13358643 22.25751465 26.9351416 22.49682617 27.76098633 C23 30 23 30 23 34 C23.66 34 24.32 34 25 34 C25.13921875 32.14181641 25.13921875 32.14181641 25.28125 30.24609375 C25.94401424 24.2893835 27.69443863 18.75835725 29.5 13.0625 C29.98146484 11.50305664 29.98146484 11.50305664 30.47265625 9.91210938 C32.8235128 2.3529744 32.8235128 2.3529744 34 0 C38.29 0 42.58 0 47 0 C45.63865426 6.7259709 43.74478482 13.05112964 41.4453125 19.51171875 C41.10249237 20.4835762 40.75967224 21.45543365 40.40646362 22.45674133 C39.68465891 24.49726912 38.96009868 26.5368241 38.23291016 28.57543945 C37.12570645 31.68551561 36.03315434 34.8004855 34.94140625 37.91601562 C34.23525871 39.90656372 33.52825653 41.89680888 32.8203125 43.88671875 C32.49725128 44.81183762 32.17419006 45.73695648 31.84133911 46.69010925 C29.23041096 53.94594373 26.53031077 59.47901562 20 64 C16.89936477 65.03354508 14.68555932 65.13364996 11.4375 65.125 C10.46683594 65.12757813 9.49617188 65.13015625 8.49609375 65.1328125 C6 65 6 65 4 64 C4.53725895 60.62294375 5.11064623 57.303314 6 54 C8.01822917 53.83723958 10.03645833 53.67447917 12.0546875 53.51171875 C14.39519216 53.12606964 14.39519216 53.12606964 16 50 C15.58062042 43.67772497 12.86440367 37.32560297 10.7421875 31.40625 C10.43427277 30.5335144 10.12635803 29.66077881 9.80911255 28.76159668 C8.83596947 26.00596932 7.85583449 23.25289798 6.875 20.5 C5.8883224 17.71809732 4.9031165 14.93568374 3.91946411 12.15270996 C3.30942885 10.42810805 2.69740245 8.70420894 2.08322144 6.9810791 C0 1.11027287 0 1.11027287 0 0 Z " fill="#040404" transform="translate(412,234)"/>
<path d="M0 0 C4.48811338 2.66101085 8.70578358 6.30851165 10.21484375 11.4453125 C10.5 13.375 10.5 13.375 10.625 16.4375 C6.57122265 16.78168864 2.66480167 16.99208919 -1.375 16.4375 C-3.5625 13.4375 -3.5625 13.4375 -5.375 10.4375 C-8.4912908 9.63065548 -11.24273468 9.75231696 -14.375 10.4375 C-17.40715675 12.63581364 -18.19154398 13.88713194 -19.375 17.4375 C-19.88628482 23.70073905 -20.0469603 29.07078879 -16.375 34.4375 C-13.18266515 36.03366743 -9.84038503 35.95216114 -6.375 35.4375 C-3.94380377 33.56734906 -2.73430827 32.15611655 -1.375 29.4375 C2.585 29.4375 6.545 29.4375 10.625 29.4375 C9.76447453 36.42926944 8.24569168 39.56602499 2.79296875 44.02734375 C-3.312127 47.99840603 -9.26540276 48.28640713 -16.375 47.4375 C-22.50721079 45.54024141 -26.95723976 42.70636154 -30.4375 37.28125 C-34.26269315 29.75837014 -34.7765871 21.14142723 -32.7578125 12.92578125 C-30.09131643 6.92026578 -24.83327078 2.13273077 -18.984375 -0.734375 C-12.93244149 -2.65504851 -5.83414025 -2.6191805 0 0 Z " fill="#060606" transform="translate(345.375,234.5625)"/>
<path d="M0 0 C1.28197266 -0.00386719 1.28197266 -0.00386719 2.58984375 -0.0078125 C5.0625 0.125 5.0625 0.125 9.0625 1.125 C8.4025 4.425 7.7425 7.725 7.0625 11.125 C4.4225 11.455 1.7825 11.785 -0.9375 12.125 C-1.5975 14.435 -2.2575 16.745 -2.9375 19.125 C0.3625 19.125 3.6625 19.125 7.0625 19.125 C7.0625 22.095 7.0625 25.065 7.0625 28.125 C3.7625 28.125 0.4625 28.125 -2.9375 28.125 C-2.9375 40.665 -2.9375 53.205 -2.9375 66.125 C-7.2275 66.125 -11.5175 66.125 -15.9375 66.125 C-15.9375 53.585 -15.9375 41.045 -15.9375 28.125 C-17.9175 28.125 -19.8975 28.125 -21.9375 28.125 C-21.9375 25.155 -21.9375 22.185 -21.9375 19.125 C-19.9575 19.125 -17.9775 19.125 -15.9375 19.125 C-16.0303125 17.330625 -16.0303125 17.330625 -16.125 15.5 C-16.11028146 11.33465296 -15.26645034 8.65857983 -12.9375 5.125 C-8.74284897 1.24494779 -5.65835029 -0.01701759 0 0 Z " fill="#060606" transform="translate(402.9375,214.875)"/>
<path d="M0 0 C17.67525773 0 17.67525773 0 22.6796875 4.515625 C27.2299779 11.11800714 26.88031264 18.25989268 26 26 C24.80628821 31.08380784 23.04490542 34.04797507 19.1875 37.5625 C15 39 15 39 0 39 C0 26.13 0 13.26 0 0 Z " fill="#FDFDFD" transform="translate(216,230)"/>
<path d="M0 0 C4.62 0 9.24 0 14 0 C14 15.51 14 31.02 14 47 C9.38 47 4.76 47 0 47 C0 31.49 0 15.98 0 0 Z " fill="#101010" transform="translate(362,234)"/>
<path d="M0 0 C0.56674438 0.24720291 1.13348877 0.49440582 1.71740723 0.74909973 C1.23626957 5.33524398 -0.35223077 7.3121667 -3.58703613 10.52351379 C-4.50145981 11.44086304 -5.41588348 12.35821228 -6.35801697 13.30335999 C-7.3625393 14.29077076 -8.36735283 15.27788537 -9.37243652 16.26472473 C-10.39834785 17.2857106 -11.42344764 18.30751252 -12.44776917 19.33009338 C-14.59304345 21.46773696 -16.74460256 23.59876042 -18.90148926 25.72468567 C-21.66867315 28.45222042 -24.42491013 31.19048444 -27.17717648 33.93306351 C-29.80124294 36.54716702 -32.43024568 39.156281 -35.05993652 41.76472473 C-35.56244368 42.26383614 -36.06495083 42.76294754 -36.58268547 43.27718353 C-38.00200184 44.68494453 -39.42528355 46.08870427 -40.84875488 47.49226379 C-41.65848251 48.29214722 -42.46821014 49.09203064 -43.30247498 49.91615295 C-45.61098394 52.05308343 -46.81950707 52.66089293 -49.90759277 53.24909973 C-53.58407582 52.70443558 -54.28379007 52.16555115 -56.93103027 49.75691223 C-57.63147461 49.12108215 -58.33191895 48.48525208 -59.05358887 47.83015442 C-59.78916016 47.14340637 -60.52473145 46.45665833 -61.28259277 45.74909973 C-62.02203125 45.05977356 -62.76146973 44.37044739 -63.52331543 43.66023254 C-65.80077714 41.50533144 -68.04435756 39.31966495 -70.28259277 37.12409973 C-71.44468262 36.01808411 -71.44468262 36.01808411 -72.63024902 34.88972473 C-73.36114746 34.17042786 -74.0920459 33.45113098 -74.84509277 32.71003723 C-75.50638184 32.0685675 -76.1676709 31.42709778 -76.84899902 30.76618958 C-78.62706408 28.26442297 -78.5690972 26.7528382 -78.28259277 23.74909973 C-72.17830554 24.11905653 -68.46885815 28.34470357 -64.55993652 32.64363098 C-63.40904849 33.97278869 -62.26457587 35.30752645 -61.12634277 36.64753723 C-58.02089008 40.18722695 -54.64991097 43.46049807 -51.28259277 46.74909973 C-47.70339523 45.23473334 -45.46273684 43.14469928 -42.7611084 40.37532043 C-41.87338745 39.47130997 -40.9856665 38.5672995 -40.07104492 37.63589478 C-39.60147873 37.15322458 -39.13191254 36.67055439 -38.64811707 36.17325783 C-37.17388972 34.65952725 -35.69218555 33.15350816 -34.20800781 31.64953613 C-29.99070102 27.3742435 -25.78337357 23.08932641 -21.59069824 18.78987122 C-19.02261764 16.15746993 -16.44258479 13.53730288 -13.85453796 10.92453575 C-12.87064324 9.92635742 -11.89144966 8.92352287 -10.91706848 7.91605568 C-9.55758588 6.51103552 -8.18120581 5.12242424 -6.80407715 3.73469543 C-6.02560425 2.93908707 -5.24713135 2.1434787 -4.44506836 1.32376099 C-2.28259277 -0.25090027 -2.28259277 -0.25090027 0 0 Z " fill="#0D0D0D" transform="translate(148.2825927734375,243.2509002685547)"/>
<path d="M0 0 C3.49013393 2.22099432 5.48887557 4.17181811 7 8 C7.68737453 14.40954432 7.88390842 20.59027042 4 26 C1.66973136 28.41062274 0.3820333 28.93497306 -2.9375 29.5 C-7.05302538 28.82807749 -8.3963362 27.18225576 -11 24 C-13.88257332 19.27940954 -13.50534774 14.36446063 -13 9 C-10.61935026 2.33418074 -7.30874115 -1.04410588 0 0 Z " fill="#F6F6F6" transform="translate(287,243)"/>
<path d="M0 0 C4.30169173 1.40272556 4.30169173 1.40272556 5.875 3.9375 C6.375 6.875 6.375 6.875 5.875 9.9375 C3.75 12.375 3.75 12.375 0.875 13.9375 C-2.68590901 13.9375 -4.38197245 13.63099238 -7 11.1875 C-8.38658364 8.41433272 -8.73613966 6.99319832 -8.125 3.9375 C-5.41940372 0.91359827 -4.10202376 -0.08204048 0 0 Z " fill="#0D0D0D" transform="translate(370.125,214.0625)"/>
</svg>
