<?xml version="1.0" encoding="UTF-8"?>
<svg version="1.1" xmlns="http://www.w3.org/2000/svg" width="425" height="194">
<path d="M0 0 C140.25 0 280.5 0 425 0 C425 64.02 425 128.04 425 194 C284.75 194 144.5 194 0 194 C0 129.98 0 65.96 0 0 Z " fill="#FEFEFE" transform="translate(0,0)"/>
<path d="M0 0 C0.888013 -0.00029205 1.776026 -0.00058411 2.69094849 -0.00088501 C5.62910702 0.00050946 8.56701266 0.01607621 11.50512695 0.03173828 C13.54108034 0.03546799 15.57703551 0.03831516 17.61299133 0.04031372 C22.97405952 0.04795345 28.33501951 0.06760491 33.69604492 0.08972168 C39.16559383 0.11017275 44.63516021 0.11931386 50.10473633 0.12939453 C60.83850785 0.15085044 71.57219903 0.18499053 82.3059082 0.22705078 C82.32049072 1.26635742 82.33507324 2.30566406 82.35009766 3.37646484 C82.40814001 7.23830293 82.485372 11.09956154 82.56835938 14.9609375 C82.6015809 16.63108911 82.62962154 18.30135224 82.65234375 19.97167969 C82.68594155 22.37499441 82.73825767 24.77728977 82.79418945 27.18017578 C82.80057938 27.92511292 82.8069693 28.67005005 82.81355286 29.43756104 C82.89781625 32.41925482 83.18094334 34.92141967 84.3137207 37.69189453 C87.47016608 40.1242142 90.86678036 39.83050451 94.69262695 39.83642578 C95.50963577 39.85296204 96.32664459 39.86949829 97.16841125 39.88653564 C99.77681934 39.93510419 102.38464414 39.95640537 104.9934082 39.97705078 C106.7623179 40.00520319 108.53120032 40.03512959 110.30004883 40.06689453 C114.63528727 40.14086506 118.97020023 40.19038517 123.3059082 40.22705078 C123.37599022 57.74248998 123.42889239 75.25788541 123.46134472 92.77343273 C123.47681342 100.90621312 123.49790297 109.03890639 123.53222656 117.17163086 C123.56212886 124.26014095 123.58148318 131.34858795 123.58817369 138.43715936 C123.59208456 142.19050266 123.60127558 145.94366546 123.62309837 149.69695091 C123.64726301 153.88699729 123.64787766 158.07672988 123.64648438 162.2668457 C123.6572702 163.51121902 123.66805603 164.75559235 123.6791687 166.03767395 C123.67504471 167.18045807 123.67092072 168.32324219 123.66667175 169.50065613 C123.66943713 170.49158359 123.67220251 171.48251104 123.67505169 172.50346661 C123.23488975 175.75103329 122.23729032 177.59716337 120.3059082 180.22705078 C117.01756832 182.41927737 116.02207291 182.48452256 112.20207214 182.5146637 C110.61861748 182.53396187 110.61861748 182.53396187 109.00317383 182.5536499 C107.26620239 182.55936005 107.26620239 182.55936005 105.49414062 182.56518555 C104.27439041 182.57672165 103.0546402 182.58825775 101.79792786 182.60014343 C98.45064439 182.62859239 95.10361192 182.64766629 91.75625014 182.66035962 C89.66414774 182.66844632 87.57206505 182.67862696 85.47997475 182.68937492 C78.9317894 182.72209377 72.38365198 182.74599391 65.83539599 182.75818878 C58.28085356 182.77244164 50.72724568 182.81630669 43.17301291 182.88569027 C37.33085565 182.93749538 31.48896395 182.96236375 25.64658052 182.96701092 C22.15841667 182.97040718 18.67119794 182.98523151 15.18327904 183.0282917 C11.29050149 183.07550859 7.39892292 183.06692487 3.50585938 183.0534668 C2.35395111 183.07549164 1.20204285 183.09751648 0.01522827 183.12020874 C-4.76801488 183.06396139 -8.73750635 182.99926863 -12.41104126 179.68397522 C-16.47137947 173.75539738 -15.50084461 165.97757848 -15.42285156 159.08984375 C-15.42607298 157.44176557 -15.43189344 155.79369073 -15.44010925 154.14562988 C-15.45461537 149.68270335 -15.43174021 145.22068077 -15.40125012 140.75786352 C-15.37484731 136.08371396 -15.38018211 131.40959101 -15.3813324 126.73538208 C-15.3785255 118.88886436 -15.35251287 111.04269536 -15.31152344 103.19628906 C-15.26431698 94.12630285 -15.24853042 85.05669809 -15.2507301 75.9865979 C-15.25275672 66.3249638 -15.23193527 56.66347661 -15.20439029 47.00188684 C-15.19799858 44.21947197 -15.19586708 41.43708082 -15.19467354 38.65465927 C-15.19165882 34.28295701 -15.17333362 29.91157467 -15.14317513 25.53997803 C-15.1344174 23.93598515 -15.13072055 22.33195545 -15.13245773 20.72793961 C-15.13393193 18.53800342 -15.116946 16.34896073 -15.0952301 14.15914917 C-15.09020257 12.93396009 -15.08517504 11.70877102 -15.07999516 10.446455 C-14.65563685 6.90623985 -13.83615746 5.05114712 -11.6940918 2.22705078 C-7.7900403 -0.37565022 -4.5260838 -0.03873804 0 0 Z " fill="#FCFCFC" transform="translate(20.694091796875,5.77294921875)"/>
<path d="M0 0 C17.20125 -0.0825 34.4025 -0.165 52.125 -0.25 C57.55211426 -0.28641602 62.97922852 -0.32283203 68.57080078 -0.36035156 C75.20874023 -0.37841797 75.20874023 -0.37841797 78.31832886 -0.3817749 C80.48559861 -0.38790878 82.65285488 -0.40195973 84.82003784 -0.42230225 C88.10699096 -0.45160766 91.39311148 -0.45562323 94.68017578 -0.45410156 C95.64226519 -0.468494 96.60435459 -0.48288643 97.59559822 -0.497715 C105.42591408 -0.44923213 109.5409236 2.29586525 115.04589844 7.78710938 C116.14668732 8.87844177 116.14668732 8.87844177 117.26971436 9.99182129 C118.04180237 10.76795776 118.81389038 11.54409424 119.609375 12.34375 C120.41739563 13.14985718 121.22541626 13.95596436 122.05792236 14.78649902 C123.75803385 16.48525388 125.45563972 18.18651962 127.15087891 19.89013672 C129.74810968 22.49810187 132.3558673 25.09519724 134.96484375 27.69140625 C136.61782939 29.34571303 138.27019478 31.00063987 139.921875 32.65625 C140.70205994 33.43238647 141.48224487 34.20852295 142.28607178 35.00817871 C143.00732239 35.73573364 143.728573 36.46328857 144.47167969 37.21289062 C145.10644226 37.84924438 145.74120483 38.48559814 146.39520264 39.14123535 C149.58466398 42.83544505 150.25062983 45.74136785 150.26069641 50.590271 C150.26778122 51.72853333 150.27486603 52.86679565 150.28216553 54.03955078 C150.27968811 55.28430176 150.27721069 56.52905273 150.2746582 57.81152344 C150.27976913 59.1257428 150.28488007 60.43996216 150.29014587 61.79400635 C150.30353608 65.39752578 150.30411425 69.00094032 150.30158257 72.60447979 C150.30051231 75.61615283 150.30539794 78.6278047 150.310188 81.6394732 C150.32128446 88.74892273 150.32172061 95.85831944 150.31567383 102.96777344 C150.30964075 110.29090881 150.32192769 117.61385172 150.3432439 124.93695426 C150.3608903 131.23181242 150.36685625 137.52660951 150.36360615 143.82149148 C150.3617971 147.57763922 150.36439107 151.33364984 150.37832069 155.08977509 C150.39094308 158.6258562 150.38891365 162.16163896 150.37590981 165.69771576 C150.37243526 167.60459682 150.3836911 169.51148716 150.39547729 171.41833496 C150.35545888 177.97675786 149.96068946 183.09496274 147 189 C142.19710876 192.90234913 138.4893717 194.12578508 132.40022278 194.12025452 C130.6559423 194.12232076 130.6559423 194.12232076 128.87642384 194.12442875 C127.59438415 194.12083064 126.31234446 194.11723253 124.99145508 194.11352539 C123.60939124 194.11321909 122.22732725 194.1133525 120.84526348 194.11389065 C117.14092643 194.1141166 113.43662161 194.10831665 109.73229218 194.10128021 C106.25752154 194.09558939 102.78275878 194.09531731 99.3079834 194.09460449 C89.14281799 194.08935514 78.97765859 194.07539401 68.8125 194.0625 C46.104375 194.041875 23.39625 194.02125 0 194 C0 129.98 0 65.96 0 0 Z M7 11 C5.56201371 13.87597258 5.8573629 16.3559088 5.83937073 19.57133484 C5.83428291 20.25414152 5.82919509 20.93694821 5.82395309 21.64044601 C5.80819616 23.93957587 5.799695 26.23867422 5.79125977 28.5378418 C5.78172383 30.18193259 5.77183279 31.82602136 5.76161194 33.47010803 C5.73019385 38.87978728 5.70995507 44.28948207 5.69140625 49.69921875 C5.68810893 50.6192746 5.68481161 51.53933045 5.68141437 52.48726678 C5.65062985 61.1631696 5.62391944 69.83907583 5.60699558 78.51501751 C5.58508925 89.61557476 5.54312447 100.71564825 5.47355801 111.81601208 C5.42631566 119.61906696 5.40206162 127.42199133 5.3947987 135.22518474 C5.38984232 139.88639168 5.37476344 144.54705374 5.3350544 149.20810509 C5.29817081 153.59544342 5.28978372 157.9819261 5.30306053 162.36939049 C5.30300661 163.97743148 5.29272048 165.58551053 5.2713089 167.19340897 C4.89857226 176.76867731 4.89857226 176.76867731 8.28305054 185.45692444 C12.77433603 189.50475162 18.44618695 188.96025337 24.16821289 188.87402344 C26.00090477 188.88760391 26.00090477 188.88760391 27.87062073 188.90145874 C31.21044788 188.91850883 34.54722676 188.90428828 37.88677144 188.8744154 C41.38647111 188.8491806 44.88608792 188.85982442 48.385849 188.86529541 C54.26115642 188.86887625 60.13583584 188.84437435 66.01098633 188.80273438 C72.79821085 188.75493684 79.58444338 188.74970705 86.37178999 188.7676847 C92.90942792 188.78417179 99.44671175 188.77231084 105.98431206 188.74695587 C108.76297056 188.73656802 111.54138718 188.73574731 114.32005501 188.74260712 C118.20080856 188.75051347 122.08059407 188.71679721 125.96118164 188.67871094 C127.11197205 188.68569 128.26276245 188.69266907 129.44842529 188.69985962 C135.88864979 188.76197658 135.88864979 188.76197658 141.18992615 185.58258057 C143.78035551 181.8866029 144.12440704 180.11079377 144.12025452 175.6343689 C144.12162918 174.49570877 144.12300385 173.35704865 144.12442017 172.18388367 C144.12082489 170.92872452 144.11722961 169.67356537 144.11352539 168.38037109 C144.11374443 166.40483498 144.11374443 166.40483498 144.1139679 164.38938904 C144.11425551 160.77184069 144.10836458 157.15432531 144.10139394 153.53678465 C144.09515442 149.75846237 144.09455613 145.98013938 144.09336853 142.20181274 C144.09025698 135.04430505 144.08204596 127.88681257 144.07201904 120.72931159 C144.06085243 112.58190116 144.05534607 104.43449002 144.05032361 96.28707385 C144.03986321 79.52470698 144.02226718 62.76235543 144 46 C142.89487061 45.9906543 141.78974121 45.98130859 140.65112305 45.97167969 C136.5525678 45.93182019 132.45476642 45.86607363 128.35668945 45.79248047 C126.58269939 45.76424721 124.80858299 45.74304437 123.03442383 45.72900391 C120.48452968 45.70760619 117.93615834 45.66097565 115.38671875 45.609375 C114.59287277 45.60814636 113.79902679 45.60691772 112.98112488 45.60565186 C109.79851452 45.52090747 107.57665646 45.44436469 105.0078125 43.46484375 C103.58585831 39.98711859 103.5200316 36.65458 103.48828125 32.953125 C103.47033005 32.18192322 103.45237885 31.41072144 103.43388367 30.6161499 C103.37984231 28.16082168 103.3459058 25.70568714 103.3125 23.25 C103.27932136 21.58200434 103.24483118 19.91403421 103.20898438 18.24609375 C103.12411978 14.1642024 103.05727974 10.08236786 103 6 C91.221533 5.88416069 79.44320147 5.79531203 67.66428089 5.74093914 C62.19484655 5.71484303 56.72580187 5.67944412 51.2565918 5.62280273 C45.97867184 5.56848437 40.70112673 5.53857957 35.42294884 5.52561378 C33.40906561 5.51637365 31.39520295 5.4983297 29.38147926 5.47134972 C26.56091576 5.43506187 23.74190187 5.43005455 20.92114258 5.43237305 C20.08820175 5.41439667 19.25526093 5.39642029 18.39707947 5.37789917 C12.89470552 5.42685267 10.52286142 6.44994678 7 11 Z " fill="#070707" transform="translate(0,0)"/>
<path d="M0 0 C36.73214286 0 36.73214286 0 45.58984375 8.53125 C51.88860384 15.30742223 53.55240105 22.4146014 53.4375 31.4375 C53.42920166 32.27643799 53.42090332 33.11537598 53.41235352 33.97973633 C53.24563204 40.06655333 52.59052758 44.93038942 49 50 C48.53722656 50.70253906 48.07445312 51.40507813 47.59765625 52.12890625 C42.47339318 58.93202324 38.72288935 59.36546277 30 63 C20.1 63 10.2 63 0 63 C0 42.21 0 21.42 0 0 Z " fill="#070707" transform="translate(167,65)"/>
<path d="M0 0 C5.82487858 3.26418317 8.71069283 8.23388566 11.625 14.0625 C12.39407817 23.46722729 12.7335844 32.26984471 6.625 40.0625 C0.49745418 45.93880248 -6.03082098 47.5325248 -14.3671875 47.37890625 C-21.14909188 46.66548514 -26.0906729 43.29889979 -30.375 38.0625 C-35.55690505 31.23257925 -35.267464 23.30201615 -34.375 15.0625 C-32.43138874 8.22348284 -27.87352207 3.35147688 -21.8125 -0.25 C-14.75431711 -3.49330815 -7.04166538 -3.05421631 0 0 Z " fill="#050505" transform="translate(260.375,81.9375)"/>
<path d="M0 0 C4.62 0 9.24 0 14 0 C16.23152954 6.56056282 18.27324746 13.15279178 20.1875 19.8125 C20.46013672 20.73998047 20.73277344 21.66746094 21.01367188 22.62304688 C21.27083984 23.51701172 21.52800781 24.41097656 21.79296875 25.33203125 C22.0252417 26.13358643 22.25751465 26.9351416 22.49682617 27.76098633 C23 30 23 30 23 34 C23.66 34 24.32 34 25 34 C25.13921875 32.14181641 25.13921875 32.14181641 25.28125 30.24609375 C25.94401424 24.2893835 27.69443863 18.75835725 29.5 13.0625 C29.98146484 11.50305664 29.98146484 11.50305664 30.47265625 9.91210938 C32.8235128 2.3529744 32.8235128 2.3529744 34 0 C38.29 0 42.58 0 47 0 C45.63865426 6.7259709 43.74478482 13.05112964 41.4453125 19.51171875 C41.10249237 20.4835762 40.75967224 21.45543365 40.40646362 22.45674133 C39.68465891 24.49726912 38.96009868 26.5368241 38.23291016 28.57543945 C37.12570645 31.68551561 36.03315434 34.8004855 34.94140625 37.91601562 C34.23525871 39.90656372 33.52825653 41.89680888 32.8203125 43.88671875 C32.49725128 44.81183762 32.17419006 45.73695648 31.84133911 46.69010925 C29.23041096 53.94594373 26.53031077 59.47901562 20 64 C16.89936477 65.03354508 14.68555932 65.13364996 11.4375 65.125 C10.46683594 65.12757813 9.49617188 65.13015625 8.49609375 65.1328125 C6 65 6 65 4 64 C4.53725895 60.62294375 5.11064623 57.303314 6 54 C8.01822917 53.83723958 10.03645833 53.67447917 12.0546875 53.51171875 C14.39519216 53.12606964 14.39519216 53.12606964 16 50 C15.58062042 43.67772497 12.86440367 37.32560297 10.7421875 31.40625 C10.43427277 30.5335144 10.12635803 29.66077881 9.80911255 28.76159668 C8.83596947 26.00596932 7.85583449 23.25289798 6.875 20.5 C5.8883224 17.71809732 4.9031165 14.93568374 3.91946411 12.15270996 C3.30942885 10.42810805 2.69740245 8.70420894 2.08322144 6.9810791 C0 1.11027287 0 1.11027287 0 0 Z " fill="#040404" transform="translate(377,81)"/>
<path d="M0 0 C4.48811338 2.66101085 8.70578358 6.30851165 10.21484375 11.4453125 C10.5 13.375 10.5 13.375 10.625 16.4375 C6.57122265 16.78168864 2.66480167 16.99208919 -1.375 16.4375 C-3.5625 13.4375 -3.5625 13.4375 -5.375 10.4375 C-8.4912908 9.63065548 -11.24273468 9.75231696 -14.375 10.4375 C-17.40715675 12.63581364 -18.19154398 13.88713194 -19.375 17.4375 C-19.88628482 23.70073905 -20.0469603 29.07078879 -16.375 34.4375 C-13.18266515 36.03366743 -9.84038503 35.95216114 -6.375 35.4375 C-3.94380377 33.56734906 -2.73430827 32.15611655 -1.375 29.4375 C2.585 29.4375 6.545 29.4375 10.625 29.4375 C9.76447453 36.42926944 8.24569168 39.56602499 2.79296875 44.02734375 C-3.312127 47.99840603 -9.26540276 48.28640713 -16.375 47.4375 C-22.50721079 45.54024141 -26.95723976 42.70636154 -30.4375 37.28125 C-34.26269315 29.75837014 -34.7765871 21.14142723 -32.7578125 12.92578125 C-30.09131643 6.92026578 -24.83327078 2.13273077 -18.984375 -0.734375 C-12.93244149 -2.65504851 -5.83414025 -2.6191805 0 0 Z " fill="#060606" transform="translate(310.375,81.5625)"/>
<path d="M0 0 C1.28197266 -0.00386719 1.28197266 -0.00386719 2.58984375 -0.0078125 C5.0625 0.125 5.0625 0.125 9.0625 1.125 C8.4025 4.425 7.7425 7.725 7.0625 11.125 C4.4225 11.455 1.7825 11.785 -0.9375 12.125 C-1.5975 14.435 -2.2575 16.745 -2.9375 19.125 C0.3625 19.125 3.6625 19.125 7.0625 19.125 C7.0625 22.095 7.0625 25.065 7.0625 28.125 C3.7625 28.125 0.4625 28.125 -2.9375 28.125 C-2.9375 40.665 -2.9375 53.205 -2.9375 66.125 C-7.2275 66.125 -11.5175 66.125 -15.9375 66.125 C-15.9375 53.585 -15.9375 41.045 -15.9375 28.125 C-17.9175 28.125 -19.8975 28.125 -21.9375 28.125 C-21.9375 25.155 -21.9375 22.185 -21.9375 19.125 C-19.9575 19.125 -17.9775 19.125 -15.9375 19.125 C-16.0303125 17.330625 -16.0303125 17.330625 -16.125 15.5 C-16.11028146 11.33465296 -15.26645034 8.65857983 -12.9375 5.125 C-8.74284897 1.24494779 -5.65835029 -0.01701759 0 0 Z " fill="#060606" transform="translate(367.9375,61.875)"/>
<path d="M0 0 C17.67525773 0 17.67525773 0 22.6796875 4.515625 C27.2299779 11.11800714 26.88031264 18.25989268 26 26 C24.80628821 31.08380784 23.04490542 34.04797507 19.1875 37.5625 C15 39 15 39 0 39 C0 26.13 0 13.26 0 0 Z " fill="#FDFDFD" transform="translate(181,77)"/>
<path d="M0 0 C4.62 0 9.24 0 14 0 C14 15.51 14 31.02 14 47 C9.38 47 4.76 47 0 47 C0 31.49 0 15.98 0 0 Z " fill="#101010" transform="translate(327,81)"/>
<path d="M0 0 C0.56674438 0.24720291 1.13348877 0.49440582 1.71740723 0.74909973 C1.23626957 5.33524398 -0.35223077 7.3121667 -3.58703613 10.52351379 C-4.50145981 11.44086304 -5.41588348 12.35821228 -6.35801697 13.30335999 C-7.3625393 14.29077076 -8.36735283 15.27788537 -9.37243652 16.26472473 C-10.39834785 17.2857106 -11.42344764 18.30751252 -12.44776917 19.33009338 C-14.59304345 21.46773696 -16.74460256 23.59876042 -18.90148926 25.72468567 C-21.66867315 28.45222042 -24.42491013 31.19048444 -27.17717648 33.93306351 C-29.80124294 36.54716702 -32.43024568 39.156281 -35.05993652 41.76472473 C-35.56244368 42.26383614 -36.06495083 42.76294754 -36.58268547 43.27718353 C-38.00200184 44.68494453 -39.42528355 46.08870427 -40.84875488 47.49226379 C-41.65848251 48.29214722 -42.46821014 49.09203064 -43.30247498 49.91615295 C-45.61098394 52.05308343 -46.81950707 52.66089293 -49.90759277 53.24909973 C-53.58407582 52.70443558 -54.28379007 52.16555115 -56.93103027 49.75691223 C-57.63147461 49.12108215 -58.33191895 48.48525208 -59.05358887 47.83015442 C-59.78916016 47.14340637 -60.52473145 46.45665833 -61.28259277 45.74909973 C-62.02203125 45.05977356 -62.76146973 44.37044739 -63.52331543 43.66023254 C-65.80077714 41.50533144 -68.04435756 39.31966495 -70.28259277 37.12409973 C-71.44468262 36.01808411 -71.44468262 36.01808411 -72.63024902 34.88972473 C-73.36114746 34.17042786 -74.0920459 33.45113098 -74.84509277 32.71003723 C-75.50638184 32.0685675 -76.1676709 31.42709778 -76.84899902 30.76618958 C-78.62706408 28.26442297 -78.5690972 26.7528382 -78.28259277 23.74909973 C-72.17830554 24.11905653 -68.46885815 28.34470357 -64.55993652 32.64363098 C-63.40904849 33.97278869 -62.26457587 35.30752645 -61.12634277 36.64753723 C-58.02089008 40.18722695 -54.64991097 43.46049807 -51.28259277 46.74909973 C-47.70339523 45.23473334 -45.46273684 43.14469928 -42.7611084 40.37532043 C-41.87338745 39.47130997 -40.9856665 38.5672995 -40.07104492 37.63589478 C-39.60147873 37.15322458 -39.13191254 36.67055439 -38.64811707 36.17325783 C-37.17388972 34.65952725 -35.69218555 33.15350816 -34.20800781 31.64953613 C-29.99070102 27.3742435 -25.78337357 23.08932641 -21.59069824 18.78987122 C-19.02261764 16.15746993 -16.44258479 13.53730288 -13.85453796 10.92453575 C-12.87064324 9.92635742 -11.89144966 8.92352287 -10.91706848 7.91605568 C-9.55758588 6.51103552 -8.18120581 5.12242424 -6.80407715 3.73469543 C-6.02560425 2.93908707 -5.24713135 2.1434787 -4.44506836 1.32376099 C-2.28259277 -0.25090027 -2.28259277 -0.25090027 0 0 Z " fill="#0D0D0D" transform="translate(113.2825927734375,90.25090026855469)"/>
<path d="M0 0 C3.49013393 2.22099432 5.48887557 4.17181811 7 8 C7.68737453 14.40954432 7.88390842 20.59027042 4 26 C1.66973136 28.41062274 0.3820333 28.93497306 -2.9375 29.5 C-7.05302538 28.82807749 -8.3963362 27.18225576 -11 24 C-13.88257332 19.27940954 -13.50534774 14.36446063 -13 9 C-10.61935026 2.33418074 -7.30874115 -1.04410588 0 0 Z " fill="#F6F6F6" transform="translate(252,90)"/>
<path d="M0 0 C3.3 0 6.6 0 10 0 C9.236875 0.556875 8.47375 1.11375 7.6875 1.6875 C3.93416184 4.91711656 2.18416785 7.36443576 1.62247658 12.35272312 C1.6213455 13.6408034 1.62021442 14.92888369 1.61904907 16.2559967 C1.6143691 16.97615178 1.60968913 17.69630686 1.60486734 18.43828481 C1.59292322 20.84584528 1.60237195 23.25283592 1.61181641 25.66040039 C1.60775047 27.3886193 1.60240847 29.11683561 1.59588623 30.845047 C1.58221043 35.53501741 1.58751211 40.22478982 1.59702349 44.91476369 C1.60461748 49.8216348 1.59757531 54.72848894 1.59286499 59.63536072 C1.5874072 67.87453252 1.59460022 76.11362365 1.60888672 84.3527832 C1.62521868 93.88169823 1.61992085 103.41042074 1.6034075 112.93933111 C1.58979978 121.11863672 1.58786932 129.29788432 1.59572351 137.47719759 C1.60040325 142.36330506 1.60101648 147.24932199 1.59111404 152.13542366 C1.58245685 156.72783499 1.58844341 161.3199977 1.60579681 165.91238213 C1.6097681 167.5990495 1.60861665 169.28573775 1.60200882 170.97239685 C1.59382855 173.27221064 1.60407148 175.57122433 1.61904907 177.87098694 C1.62018015 179.1586902 1.62131123 180.44639345 1.62247658 181.77311802 C2.02591105 185.22147474 2.75829697 186.44965292 5 189 C5 189.66 5 190.32 5 191 C7.31 191.66 9.62 192.32 12 193 C12 193.33 12 193.66 12 194 C8.04 194 4.08 194 0 194 C0 129.98 0 65.96 0 0 Z " fill="#4C4C4C" transform="translate(0,0)"/>
<path d="M0 0 C4.30169173 1.40272556 4.30169173 1.40272556 5.875 3.9375 C6.375 6.875 6.375 6.875 5.875 9.9375 C3.75 12.375 3.75 12.375 0.875 13.9375 C-2.68590901 13.9375 -4.38197245 13.63099238 -7 11.1875 C-8.38658364 8.41433272 -8.73613966 6.99319832 -8.125 3.9375 C-5.41940372 0.91359827 -4.10202376 -0.08204048 0 0 Z " fill="#0D0D0D" transform="translate(335.125,61.0625)"/>
<path d="M0 0 C0.66 1.32 1.32 2.64 2 4 C2.804375 5.051875 2.804375 5.051875 3.625 6.125 C5 8 5 8 5 10 C7.31 10.66 9.62 11.32 12 12 C12 12.33 12 12.66 12 13 C8.04 13 4.08 13 0 13 C0 8.71 0 4.42 0 0 Z " fill="#EBEBEB" transform="translate(0,181)"/>
<path d="M0 0 C3.3 0 6.6 0 10 0 C9.236875 0.556875 8.47375 1.11375 7.6875 1.6875 C3.86961488 4.97265697 2.23618079 8.52763843 0 13 C0 8.71 0 4.42 0 0 Z " fill="#F3F3F3" transform="translate(0,0)"/>
</svg>
